<svg fill="none" height="54" viewBox="0 0 128 54" width="128" xmlns="http://www.w3.org/2000/svg"><path d="m110.762 23.4129c-2.2.5275-7.894.7912-7.894.7912l-.647 2.2419s2.847-.2638 4.918 0c0 0 .647 0 .776.7912v1.7144s0 .5274-.776.6593c-.777.1319-6.212.3956-6.212.3956l-.906 3.0331s-.2588.6594.388.5275c.647-.1319 6.341-1.3187 6.988-1.1869.777.1319 1.683 1.3188 1.424 2.2419-.259 1.1868-5.953 4.8793-9.3177 4.6155 0 0-1.8117.1319-3.2352-2.3737-1.4236-2.3737.5176-6.7255.5176-6.7255s-.9059-2.11-.2588-2.7693c0 0 .3882-.2638 1.4235-.3956l1.4235-2.9012s-1.5529.1318-2.4588-1.055c-.9059-1.1869-.9059-1.5825-.2588-1.9781.647-.3956 7.2467-1.5825 11.6467-1.4506 0 0 1.553-.1319 2.977 2.6375-.13-.1319.517.9231-.518 1.1868zm-16.9528 11.2092c-.5176 1.3187-2.0706 2.7693-3.8823 1.9781-1.9412-.9231-4.9177-7.1212-4.9177-7.1212s-1.1647-2.2418-1.2941-2.2418c0 0-.2588-.3956-.3882 2.11-.1295 2.5055 0 7.3848-1.0353 8.1761-.9059.7912-2.0706.3956-2.7177-.3957-.5176-.9231-.7765-3.033-.3882-6.7254.3882-3.6925 1.1647-7.6487 2.2-8.9674 1.1647-1.1868 1.9411-.3956 2.3294 0 0 0 1.4235 1.3187 3.8823 5.2749l.3883.6594s2.2 3.6924 2.4588 3.6924c0 0 .1294.1319.3882 0 .2589 0 .1295-1.3187.1295-1.3187s-.3883-3.9562-2.4589-10.8136c0 0-.2588-.9231-.1294-1.7143s1.0353-.3956 1.0353-.3956 3.1059 1.4506 4.5294 6.5936c1.4236 5.2749.5177 9.8904-.1294 11.2092zm-15.0118-13.0554c-.2588.5275-.3882 1.3187-1.6823 1.4506 0 0-12.4236.9231-13.0706 1.7143 0 0-.3883.5275.2588.6594s3.4941.5275 4.7882.6594c1.4236 0 6.3412 0 8.0236 2.2418 0 0 1.0353 1.055 1.0353 3.4287 0 2.5056-.5177 3.2968-1.4236 4.2199-1.0353.7912-9.447 4.6155-14.7529-1.1869 0 0-2.4589-2.7693.9059-5.0111 0 0 2.4588-1.4506 8.5412.2637 0 0 1.8117.6594 1.8117 1.3188-.1294.7912-1.5529 1.4506-3.6235 1.4506-1.9412 0-3.4941-1.055-3.2353-.9231.2588.1318-2.2-1.1869-2.9765-.2638-.7765.7912-.5176 1.3187.1294 1.8462 1.8118 1.055 9.1883.6594 11.2589-1.7143 0 0 .9059-1.055-.3883-1.8462-1.2941-.7913-5.047-1.1869-6.4706-1.3188-1.4235-.1318-6.6 0-7.3765-1.3187 0 0-.7764-.9231.1295-3.6924.9058-2.7693 6.8588-3.9562 9.5764-4.0881 0 0 7.2471-.2637 8.5412 1.1869 0 0 .1294.3956 0 .9231zm-20.4471 16.6159c-.9058.6594-2.7176.3956-3.2353-.3956-.5176-.6594-.647-3.2968-.647-7.3848.1294-4.22.1294-9.363 1.1647-10.1542.9059-.7913 1.4235-.1319 1.8118.3956.3882.5275.9058 1.1868.9058 2.5056.1295 1.3187.3883 8.1761.3883 8.1761s.3882 6.198-.3883 6.8573zm1.8118-22.1545c-2.5882.9231-4.2706.6593-5.8235 0-.6471 1.1868-1.0353 1.5824-1.553 1.5824-.7764.1319-1.4235-1.1868-1.4235-1.4506-.1294-.2637-.5177-.7912-.1294-1.9781-1.4236-1.3187-1.553-3.033-1.2941-4.21988.3882-1.4506 2.847-6.7255 10.2235-7.38486 0 0 3.6235-.26374 4.2706 1.71434h.1294s3.4941 0 3.4941 3.16494c-.1294 3.29686-4.0117 7.25296-7.8941 8.57176zm3.2353-9.09925c-2.3294.39562-5.9529 3.56055-7.6353 6.19805 2.5882.5274 7.2471.2637 9.3177-3.95622 0 0 1.0353-2.76932-1.6824-2.24183zm-10.2235 2.10996c-.7765 1.18689-.7765 1.97809-.3883 2.37369.9059-1.3187 2.4589-3.42867 4.6589-5.01114-1.6824.26375-3.2353.92311-4.2706 2.63745zm63.1531 29.01199c-1.682 4.2199-3.106 8.5717-4.012 15.0334 0 0-.129 1.3187-1.165.7913-1.035-.3957-2.717-2.11-3.105-4.4837-.389-3.165 1.035-8.4398 3.752-14.506-.776-1.3187-1.423-3.2968-.905-6.0661 0 0 .776-5.143 5.694-9.7586 0 0 .647-.5275.906-.3956.388.1319.258 1.8462-.13 2.6375-.259.7912-2.459 4.7474-2.459 4.7474s-1.423 2.6374-1.035 4.7474c2.588-4.0881 8.671-12.396 12.294-9.7586 2.33 1.7143 2.33 7.1211.647 10.2861-1.294 2.7693-5.306 7.9123-10.482 6.7255zm7.635-12.9235c-1.423 1.4506-3.753 4.3517-5.694 8.3079 2.071-.2637 4.012-1.3187 4.659-1.9781 1.035-.9231 3.235-3.2968 2.847-6.4617 0 0-.259-1.5825-1.812.1319zm-82.8235 15.0334c-6.6 1.9781-12.6823 1.055-16.047.1319-.1295 1.4506-.2589 1.9781-.5177 2.2418-.2588.2638-2.4588 1.5825-3.6235-.2637-.5177-.7913-.7765-2.3737-.9059-3.8243-7.6353-3.5606-11.12944-8.7036-11.25886-8.8355-.12941-.1319-1.94118-1.9781-.12941-4.2199 1.55297-1.9781 6.98827-4.088 11.77647-4.8793.1294-4.088.6471-7.3848 1.1647-8.8354.6471-1.71438 1.553-.1319 2.3294.9231.6471.7912 1.0353 4.4836 1.0353 7.3848 3.1059-.1318 5.0471.1319 8.4118.7913 4.5294.7912 7.6353 3.1649 7.3765 5.8024-.2588 2.6374-2.5882 3.6924-3.4941 3.8243-.9059.1318-2.4588-.6594-2.4588-.6594-1.0353-.5275-.1295-.9231 1.1647-1.4506 1.2941-.6594 1.0353-1.3187 1.0353-1.3187-.5177-1.4506-6.3412-2.5056-12.2942-2.5056 0 3.2968.1294 8.8354.2588 12.0004 4.1412.7912 7.1177.6593 7.1177.6593s15.0118-.3956 15.4-10.1541c.5177-9.7586-15.0118-19.12154-26.4-22.02273-11.25886-3.03307-17.72946-.92311-18.37652-.65937-.64706.26375 0 .39562 0 .39562s.64706.13187 1.68236.52749c1.03529.39562.25882.92311.25882.92311-1.94118.65936-4.141183.26374-4.529419-.52749-.388236-.92311.258824-1.71434 1.164709-2.9012.77647-1.18685 1.68235-1.18685 1.68235-1.18685 14.1059-5.01115 31.1883 3.95618 31.1883 3.95618 16.0471 8.30794 18.7647 17.93464 18.5059 21.75894-.2588 3.6924-1.6823 9.8904-11.5177 12.9235zm-30.9294-13.451c-1.68238.7913-.51767 1.9781-.51767 1.9781 2.97647 3.2968 6.59997 5.2749 10.22357 6.5936.3882-5.6705.3882-7.6486.3882-10.5498-5.5647.3957-8.6706 1.3188-10.0941 1.9781z" fill="#595964"/></svg>