<svg fill="none" height="44" viewBox="0 0 150 44" width="150" xmlns="http://www.w3.org/2000/svg"><g fill="#595964"><path d="m33.7512 11.0393c0-6.01425-4.9459-11.0393-11.2767-11.0393-6.1329 0-11.2766 5.02505-11.2766 11.0393zm0 21.8411c0 6.0143-5.0646 11.0393-11.2767 11.0393-6.212 0-11.2766-5.025-11.2766-11.0393z"/><path d="m21.2872 21.8807c-5.6581.5936-10.0501 5.3021-10.0501 11.0393-6.13292-.0395-11.2371-4.9855-11.2371-11.0393s5.10418-11.0392 11.2767-11.0392c0 5.7372 4.3128 10.604 10.0105 11.0392zm2.5719 0c5.6581.5936 10.0501 5.3021 10.0501 11.0393 6.1329 0 11.2767-5.025 11.2767-11.0393 0-6.0142-5.1042-11.0392-11.2767-11.0392 0 5.7372-4.5107 10.604-10.0501 11.0392zm78.0269-7.2012c.87 0 2.73-.1187 2.73 2.0179 0 2.1367-1.345 2.8093-2.73 2.8093h-2.4138v.7122l7.4778 11.435h6.292l-6.608-9.5358c3.442-1.6222 3.601-4.115 3.601-5.8559 0-5.1438-4.353-5.856-6.015-5.856h-10.2081v21.4059h5.3812v-17.1326z"/><path d="m128.713 25.8374c-1.662 1.6223-3.443 1.7806-6.133 1.7806-3.284 0-6.014-2.8093-6.014-6.6078 0-3.7984 2.73-6.9243 6.014-6.9243 2.532 0 4.511.5936 6.133 1.8993v-5.1438c-1.781-1.02873-3.878-1.46397-6.133-1.46397-6.45 0-11.712 3.83807-11.712 11.59327 0 7.5177 5.262 11.4745 11.712 11.4745 2.255 0 4.669-.3166 6.133-1.0288zm1.345 5.8956v-21.4455h5.381v9.3774l7.083-9.3774h6.291l-6.924 9.9709 8.111 11.435h-6.608l-7.953-11.2767v11.2767h-5.381zm-75.3361 0h5.1042v-13.9673l6.6473 14.5212 6.6077-14.6795v14.086h5.3812v-21.2476h-7.953l-4.0359 9.3774-4.1941-9.3774h-7.5178v21.2872zm25.0857-21.4455h13.0572v4.392h-7.6761v3.9567h7.043v4.392h-7.043v4.2732h7.6761v4.392h-13.0572z"/></g></svg>