<svg fill="none" height="38" viewBox="0 0 148 38" width="148" xmlns="http://www.w3.org/2000/svg"><path d="m29.7523 37.4639v-27.85798l-6.815 27.85798h-7.7098l-6.72856-27.94156v27.94156h-8.49894v-37.4639h13.9099l5.5993 23.6884 5.6681-23.6884h13.781v37.4639h-9.2095zm71.5507 0h9.209v-37.4639h-13.7812l-5.6709 23.6884-5.6029-23.6884h-13.9064v37.4639h8.499v-27.94156l6.7286 27.94156h7.7097l6.8151-27.85798zm-50.4709-13.524v1.2508c0 4.7518 1.8561 6.6964 4.3873 6.6964 2.6211 0 4.4751-1.9453 4.4751-6.6964v-1.2508c0-4.8361-1.8547-6.6936-4.4751-6.6936-2.5305 0-4.3873 1.8575-4.3873 6.6936zm-8.7242.3278c0-8.4445 6.1845-13.0774 12.9854-13.0774 6.8979 0 13.3126 4.6387 13.3126 13.0846v.5505c0 8.6303-6.4154 13.1746-13.3133 13.1746-6.8065 0-12.9925-4.545-12.9925-13.1754v-.5519zm94.8441 6.7145h-12.978l-2.019 6.4817h-8.677l11.937-37.4639h11.518l11.267 37.4639h-9.117l-1.927-6.4817zm-6.248-21.91451-4.399 14.71291h8.596l-4.199-14.71291z" fill="#595964"/></svg>