<svg fill="none" height="49" viewBox="0 0 150 49" width="150" xmlns="http://www.w3.org/2000/svg"><path d="m36.9917 15.5667v18.2c-.0033 1.4775-.2986 2.9398-.8691 4.3028-.5704 1.363-1.4048 2.5997-2.455 3.639-1.0501 1.0394-2.2955 1.8608-3.6643 2.4171s-2.8341.8365-4.3116.8244h-11.4083l2.1583-5h9.25c1.6614.0133 3.2602-.6328 4.4459-1.7966s1.8615-2.7504 1.8791-4.4117v-13.1417h-12.7583c-.8199.0011-1.6315.1643-2.3881.4803-.7565.3161-1.4431.7786-2.0202 1.3611-.577.5825-1.0331 1.2733-1.3421 2.0328-.3089.7595-.4646 1.5726-.458 2.3925v22h-5.09164v-22c.01098-2.9936 1.20504-5.8614 3.32184-7.9782s4.9846-3.3109 7.9782-3.3218h7.6666v-10.18337h-9.4833c-3.3152 0-6.4946 1.31696-8.83884 3.66117-2.3442 2.3442-3.66116 5.5236-3.66116 8.8388v30.9834h-4.94166802v-31.0167c-.00439236-2.2917.44375202-4.5617 1.31871802-6.6798.87497-2.11814 2.15955-4.04263 3.78003-5.66312 1.62048-1.62048 3.54498-2.90506 5.66312-3.78003 2.1181-.874965 4.3881-1.323109 6.6798-1.318717h14.575v15.158367zm7.8417-7.37504v-5.32499h4.3333c1.175 0 1.7583.88333 1.7583 2.75 0 1.66666-.7 2.57499-1.875 2.57499zm0 7.37504v-5h5.0916c2.925 0 4.1667-2.3417 4.1667-5.00003.075-2.875-1.0083-5.158337-4.225-5.158337h-7.9v15.158367zm10.5916-2.9084c-.043 1.2663.3711 2.5057 1.1667 3.4917l2.5-.9917c-.6073-.7373-.9059-1.6809-.8333-2.6333v-12.525h-2.75v12.6583zm11.7583.8c-.712.2481-1.4628.3666-2.2166.35-1.6667 0-2.05-.175-2.05-1.6666 0-1.4917.5833-1.6667 2.05-1.6667.7427-.0093 1.4846.0493 2.2166.175v2.75zm2.6334-4.99997c0-3.25-1.575-4.29166-4.8167-4.29166-1.4813.02661-2.9547.22233-4.3916.58333l.525 2.28333c1.067-.39324 2.1961-.59085 3.3333-.58333 2.2833 0 2.75.525 2.75 2.39166-.9087-.16141-1.8277-.25887-2.75-.29166-2.575 0-4.3833.53333-4.3833 3.6917 0 2.925 1.1666 3.7416 4.6749 3.7416 1.7307-.0432 3.4459-.3379 5.0917-.875v-6.62497zm4.3917-1.55c.6493-.17332 1.3197-.25467 1.9916-.24166 1.875 0 2.3417.58333 2.3417 3.04166v5.83337h2.6916v-6.1167c0-4.04167-1.4083-5.25833-4.45-5.25833-1.8249.01527-3.6308.37138-5.3249 1.05v10.35003h2.75zm11.4166 0c.6465-.17342 1.3142-.25478 1.9833-.24166 1.875 0 2.3417.58333 2.3417 3.04166v5.83337h2.6917v-6.1167c0-4.04167-1.4-5.26667-4.4417-5.26667-1.8055.02018-3.5915.37625-5.2667 1.05v10.35837h2.6917zm11.4083 1.80833c.2334-1.80833.8334-2.33333 2.5-2.33333 1.5247 0 2.1087.35 2.1667 2.33333zm6.0337 4.45004c-1.031.2934-2.096.4503-3.167.4666-1.8667 0-2.8667-.4666-2.8667-2.8666h7.1997c.234-5.38337-1.35-6.60837-4.858-6.60837-3.2167.00834-5.2083 1.4-5.2083 5.84167 0 4.4417 2.225 5.9667 5.4416 5.9667 1.3177-.0292 2.6227-.2654 3.8667-.7l-.408-2.1084zm9.883.1666c-.689.1623-1.392.26-2.1.2917-1.933 0-2.575-.5833-2.575-3.625 0-2.75.583-3.50834 2.458-3.50834 1.284 0 2.217.40834 2.217 1.05001v5.83333zm2.692-13.3333h-2.692v4.8c-.812-.42534-1.717-.64293-2.633-.63333-2.984 0-4.859 1.39999-4.859 5.96663 0 4.5667 1.667 5.8334 5.392 5.8334 1.629-.0433 3.243-.3241 4.792-.8334zm-70.8086 28.3833v-5.325h4.3333c1.175 0 1.7583.8334 1.7583 2.6917s-.7 2.6333-1.875 2.6333zm0 7.4334v-4.9834h5.0916c2.925 0 4.1667-2.4583 4.1667-5 0-3.0416-1.05-5.2666-4.2667-5.2666h-7.8583v15.2666zm17.2583-2.1667c-.6923.2532-1.4214.3911-2.1584.4083-1.6666 0-2.0499-.2333-2.0499-1.75 0-1.5166.4666-1.6666 2.0499-1.6666.7267-.0188 1.4525.0597 2.1584.2333v2.75zm2.6333-5c0-3.275-1.5167-4.2667-4.7917-4.2667-1.4825.0102-2.9578.2062-4.3916.5834l.4083 2.1666c1.1029-.3147 2.2448-.4718 3.3917-.4666 2.3416 0 2.75.4666 2.75 2.45-.8815-.2094-1.7858-.3074-2.6917-.2917-2.6333 0-4.3833.475-4.3833 3.6333 0 2.8667 1.1666 3.6834 4.675 3.6834 1.7019.0088 3.3929-.273 5-.8334v-6.6333zm1.6417 7.1833h2.6916v-7.7416c0-.7584 1.2334-1.225 2.575-1.225.4943-.0029.987.0559 1.4667.175v-2.575c-.3899-.0458-.7825-.0653-1.175-.0584-1.6667 0-2.4.4667-2.8667 1.1667v-.875h-2.6916zm9.95-6.925c.2333-1.8083.8333-2.4 2.5-2.4 1.525 0 2.1083.4167 2.1666 2.4zm6.025 4.425c-1.0337.2652-2.0922.4216-3.1584.4667-1.9333 0-2.8666-.525-2.8666-2.8667h7.2c.175-5.3833-1.35-6.55-4.8584-6.55-3.2166 0-5.2083 1.3417-5.2083 5.7334 0 4.625 2.225 5.9666 5.4417 5.9666 1.309-.023 2.6091-.2192 3.8666-.5833zm5.2666-6.2333c.6415-.2143 1.3158-.313 1.9917-.2917 1.9333 0 2.4.6417 2.4 3.0417v5.9833h2.6917v-6.275c0-3.925-1.4-5.15-4.5084-5.15-1.8134.0251-3.6111.3402-5.325.9334v10.4916h2.75zm16.1587 0v-2.4h-3.634v-2.925l-2.6913 1.05v1.875h-1.8667v2.4h1.8667v5c0 3.275 1.2333 4.0333 3.6913 4.0333 1.035-.0162 2.059-.202 3.034-.55l-.467-2.1083c-.613.1628-1.241.2606-1.875.2917-1.342 0-1.667-.525-1.667-1.925v-4.7417zm11.175 2.3417c0-4.1667-1.4-5-4.034-5-1.072.0261-2.128.264-3.108.7v-5h-2.633v15.6916h2.633v-8.0333c0-.6417 1.058-.9917 2.225-.9917 1.667 0 2.167.9917 2.167 2.8667v6.1583h2.75zm4.041.8166c0-3.1583.584-3.6916 2.459-3.6916s2.575.5333 2.575 3.6916c0 3.1584-.584 3.625-2.575 3.625-1.992 0-2.459-.5833-2.459-3.625zm-2.808-.1166c0 4.625 1.75 5.9666 5.267 5.9666 3.516 0 5.325-1.3416 5.325-5.9666 0-4.45-1.759-5.7334-5.325-5.7334-3.567 0-5.267 1.2834-5.267 5.7334zm14.658.1166c0-3.1583.592-3.6916 2.5-3.6916 1.909 0 2.5.5333 2.5 3.6916 0 3.1584-.583 3.625-2.5 3.625-1.916 0-2.5-.5833-2.5-3.625zm-2.75-.1166c0 4.625 1.667 5.9666 5.267 5.9666s5.275-1.3416 5.275-5.9666c0-4.45-1.758-5.7334-5.275-5.7334s-5.267 1.2834-5.267 5.7334zm19.225 3.3333c-.721.2198-1.47.3376-2.225.35-1.875 0-2.458-.5833-2.458-3.6833 0-2.6917.583-3.5084 2.458-3.5084 1.292 0 2.225.4667 2.225 1.1084zm2.692-13.4h-2.692v5c-.819-.4628-1.752-.6853-2.691-.6417-2.925 0-4.8 1.3417-4.8 5.8334 0 4.4916 1.666 5.8333 5.266 5.8333 1.676.0151 3.34-.267 4.917-.8333z" fill="#595964"/></svg>