<svg width="556" height="134" viewBox="0 0 556 134" fill="none" xmlns="http://www.w3.org/2000/svg">
<path d="M236.014 90.7418H226.781V68.9536C226.781 64.8803 226.129 61.9137 224.824 60.0654C223.52 58.2132 221.309 57.2909 218.205 57.2909C214.502 57.2909 211.643 58.6205 209.624 61.2874V90.7418H200.395V29.5465H209.628V53.0486C212.468 50.6584 215.626 49.4595 219.106 49.4595C230.389 49.4595 236.022 55.9614 236.022 68.9613V90.7495L236.014 90.7418ZM242.622 70.5099C242.622 67.5702 243.106 64.8111 244.058 62.225C245.009 59.6388 246.372 57.4101 248.144 55.531C249.91 53.6557 252.059 52.1724 254.591 51.0849C257.124 50.0013 259.945 49.4556 263.049 49.4556C266.157 49.4556 268.959 50.0013 271.465 51.0888C273.971 52.1801 276.108 53.6749 277.881 55.5848C279.646 57.4831 281.02 59.7157 282.002 62.2711C282.985 64.8265 283.472 67.5741 283.472 70.5137C283.472 73.4496 282.996 76.201 282.044 78.7525C281.085 81.3041 279.727 83.5367 277.958 85.4389C276.192 87.3448 274.036 88.8397 271.503 89.9272C268.97 91.0146 266.15 91.5603 263.045 91.5603C259.887 91.5603 257.059 91.0146 254.549 89.9272C252.043 88.8397 249.906 87.3525 248.141 85.4811C246.364 83.6059 245.002 81.3886 244.05 78.8332C243.098 76.2778 242.619 73.5034 242.619 70.5137L242.622 70.5099ZM252.101 70.5099C252.101 74.5832 253.072 77.8226 255.006 80.2166C256.94 82.6145 259.622 83.8095 263.053 83.8095C266.487 83.8095 269.17 82.6183 271.104 80.2204C273.034 77.8303 274.001 74.5947 274.001 70.5176C274.001 66.4366 273.034 63.2164 271.104 60.8455C269.17 58.4822 266.487 57.2986 263.053 57.2986C259.622 57.2986 256.94 58.4822 255.006 60.8455C253.072 63.2126 252.105 66.4366 252.105 70.5176L252.101 70.5099ZM325.223 90.7418H316.724L316.321 87.7253C313.596 90.2807 310.353 91.5603 306.597 91.5603C295.598 91.5603 290.095 85.2198 290.095 72.5465V50.1896H299.328V71.8933C299.328 75.9742 300.011 78.9523 301.37 80.8314C302.732 82.7144 304.885 83.6482 307.824 83.6482C311.42 83.6482 314.145 82.3993 315.998 79.8938V50.1896H325.227V90.7418H325.223ZM350.439 111.147C347.277 111.147 344.503 110.816 342.104 110.163C339.706 109.51 337.718 108.626 336.141 107.511C334.56 106.397 333.363 105.117 332.545 103.676C331.728 102.235 331.317 100.698 331.317 99.0652C331.317 95.0956 333.608 92.0714 338.186 90.0079C335.623 88.5861 334.341 86.7146 334.341 84.3744C334.341 81.9266 335.761 80.0245 338.593 78.6641C334.295 75.6668 332.139 71.2938 332.139 65.522C332.139 63.2433 332.522 61.1029 333.29 59.1239C334.046 57.1372 335.132 55.4349 336.552 54.0208C337.971 52.6067 339.698 51.4923 341.74 50.6776C343.781 49.863 346.084 49.4479 348.647 49.4479C352.293 49.4479 355.478 50.3241 358.203 52.061C360.82 50.7545 363.844 50.1012 367.274 50.1012H369.316L368.587 56.0574H365.478C364.55 56.0574 363.514 56.142 362.37 56.3072C364.277 58.9702 365.229 62.0175 365.229 65.4452C365.229 67.6202 364.86 69.6722 364.124 71.6051C363.395 73.5418 362.312 75.2403 360.9 76.7082C359.48 78.1761 357.754 79.3328 355.708 80.1782C353.663 81.0236 351.36 81.4463 348.801 81.4463C347.112 81.4463 345.531 81.281 344.062 80.9544C343.244 81.3886 342.834 81.9343 342.834 82.5876C342.834 83.0756 343.014 83.4868 343.371 83.8095C343.716 84.1362 344.307 84.4359 345.124 84.7087C345.942 84.9777 347.043 85.2352 348.432 85.4773C349.822 85.7271 351.579 85.9845 353.705 86.2535C355.501 86.5225 357.351 86.8799 359.258 87.3179C361.165 87.7483 362.903 88.4016 364.488 89.27C366.069 90.1423 367.374 91.2836 368.41 92.6978C369.446 94.1119 370.022 95.9333 370.125 98.1621C370.125 102.082 368.41 105.221 364.983 107.588C361.545 109.955 356.694 111.139 350.439 111.139V111.147ZM348.636 56.4724C346.026 56.4724 344.023 57.2909 342.634 58.9202C341.245 60.5496 340.55 62.7514 340.55 65.5297C340.55 68.2965 341.256 70.5061 342.672 72.1392C344.092 73.7685 346.103 74.5832 348.72 74.5832C351.33 74.5832 353.333 73.7531 354.718 72.0969C356.107 70.433 356.806 68.2158 356.806 65.4413C356.806 62.6669 356.096 60.4765 354.68 58.8703C353.26 57.2679 351.249 56.4647 348.632 56.4647L348.636 56.4724ZM350.846 93.1089L345.205 92.2943C343.467 92.8323 342.051 93.6239 340.961 94.6575C339.871 95.6874 339.326 96.9132 339.326 98.3273C339.326 100.172 340.285 101.659 342.185 102.773C344.092 103.888 346.763 104.449 350.194 104.449C353.624 104.449 356.387 103.903 358.483 102.816C360.582 101.728 361.629 100.318 361.629 98.5733C361.629 96.9901 360.708 95.8065 358.855 95.0188C356.998 94.231 354.327 93.597 350.842 93.0974L350.846 93.1089ZM464.696 91.5603C460.505 91.5603 456.906 90.2269 453.912 87.5639L453.586 90.7418H445.009V29.5465H454.242V52.964C456.909 50.62 460.398 49.4518 464.699 49.4518C467.643 49.4518 470.314 49.9974 472.712 51.0849C475.107 52.1763 477.148 53.6596 478.837 55.5348C480.525 57.4177 481.83 59.6465 482.758 62.2211C483.687 64.8111 484.148 67.5702 484.148 70.5099C484.148 73.4457 483.699 76.1971 482.804 78.7487C481.903 81.3003 480.609 83.5329 478.921 85.435C477.233 87.341 475.187 88.8358 472.793 89.9233C470.39 91.0108 467.696 91.5565 464.696 91.5565V91.5603ZM463.966 57.2909C460.804 57.2909 458.325 58.4591 456.529 60.7993C454.726 63.1357 453.832 66.3713 453.832 70.5099C453.832 74.7523 454.726 78.0301 456.526 80.3396C458.322 82.6529 460.801 83.8057 463.959 83.8057C467.221 83.8057 469.83 82.576 471.76 80.0936C473.694 77.6151 474.658 74.4218 474.658 70.5061C474.658 66.5865 473.706 63.4047 471.799 60.9569C469.895 58.5091 467.278 57.2871 463.955 57.2871L463.966 57.2909ZM409.805 90.7418H400.572V68.9536C400.572 64.8803 399.919 61.9137 398.615 60.0654C397.302 58.2132 395.096 57.2909 391.991 57.2909C388.288 57.2909 385.429 58.6205 383.415 61.2874V90.7418H374.178V29.5465H383.411V53.0486C386.239 50.6584 389.397 49.4595 392.889 49.4595C404.16 49.4595 409.797 55.9614 409.797 68.9613V90.7495L409.805 90.7418ZM438.114 83.9709L437.296 91.5603H430.274C428.47 91.5603 426.897 91.2913 425.531 90.7418C424.168 90.2038 423.036 89.466 422.138 88.5399C421.24 87.6177 420.573 86.5263 420.143 85.2736C419.701 84.0247 419.483 82.6606 419.483 81.2003V57.6944H413.354L414.176 50.1896H419.487V38.135L428.719 37.1589V50.1857H438.198V57.6983H428.719V76.958C428.719 78.6488 428.773 79.963 428.885 80.916C428.992 81.8651 429.268 82.5607 429.702 82.991C430.136 83.433 430.815 83.7019 431.743 83.8095C432.664 83.9248 433.95 83.9748 435.581 83.9748H438.114V83.9709ZM489.079 70.5099C489.079 67.5702 489.555 64.8111 490.51 62.225C491.462 59.6388 492.824 57.4101 494.593 55.531C496.37 53.6557 498.519 52.1724 501.052 51.0849C503.584 50.0013 506.405 49.4556 509.509 49.4556C512.618 49.4556 515.419 50.0013 517.925 51.0888C520.431 52.1801 522.568 53.6749 524.333 55.5848C526.11 57.4831 527.48 59.7157 528.466 62.2711C529.445 64.8265 529.936 67.5741 529.936 70.5137C529.936 73.4496 529.46 76.201 528.505 78.7525C527.553 81.3041 526.191 83.5367 524.422 85.4389C522.656 87.3448 520.5 88.8397 517.967 89.9272C515.434 91.0146 512.618 91.5603 509.513 91.5603C506.355 91.5603 503.527 91.0146 501.017 89.9272C498.511 88.8397 496.374 87.3525 494.601 85.4811C492.836 83.6059 491.473 81.3886 490.522 78.8332C489.562 76.2778 489.09 73.5034 489.09 70.5137L489.079 70.5099ZM498.557 70.5099C498.557 74.5832 499.524 77.8226 501.458 80.2166C503.392 82.6145 506.075 83.8095 509.505 83.8095C512.936 83.8095 515.618 82.6183 517.553 80.2204C519.487 77.8303 520.454 74.5947 520.454 70.5176C520.454 66.4366 519.487 63.2164 517.553 60.8455C515.618 58.4822 512.936 57.2986 509.505 57.2986C506.075 57.2986 503.392 58.4822 501.458 60.8455C499.524 63.2126 498.557 66.4366 498.557 70.5176V70.5099ZM555.912 83.9709L555.094 91.5603H548.072C546.268 91.5603 544.695 91.2913 543.329 90.7418C541.97 90.2038 540.834 89.466 539.94 88.5399C539.042 87.6177 538.375 86.5263 537.945 85.2736C537.504 84.0247 537.285 82.6606 537.285 81.2003V57.6944H531.156L531.974 50.1896H537.289V38.135L546.522 37.1589V50.1857H556V57.6983H546.522V76.958C546.522 78.6488 546.579 79.963 546.69 80.916C546.798 81.8651 547.074 82.5607 547.508 82.991C547.941 83.433 548.621 83.7019 549.549 83.8095C550.47 83.9248 551.752 83.9748 553.387 83.9748H555.919L555.912 83.9709ZM193.783 83.9709L192.966 91.5603H185.943C184.14 91.5603 182.566 91.2913 181.2 90.7418C179.838 90.2038 178.706 89.466 177.808 88.5399C176.91 87.6177 176.242 86.5263 175.805 85.2736C175.371 84.0247 175.152 82.6606 175.152 81.2003V57.6944H169.02L169.841 50.1896H175.152V38.135L184.385 37.1589V50.1857H193.864V57.6983H184.385V76.958C184.385 78.6488 184.439 79.963 184.55 80.916C184.658 81.8651 184.934 82.5607 185.368 82.991C185.801 83.433 186.48 83.7019 187.409 83.8095C188.33 83.9248 189.616 83.9748 191.247 83.9748H193.779" fill="#E03131"/>
<path d="M66.8399 133.68C103.755 133.68 133.68 103.755 133.68 66.8399C133.68 29.9253 103.755 0 66.8399 0C29.9253 0 0 29.9253 0 66.8399C0 103.755 29.9253 133.68 66.8399 133.68Z" fill="#E03131"/>
<path fill-rule="evenodd" clip-rule="evenodd" d="M67.7242 15.4904C74.2136 15.4904 79.9497 17.8917 83.3596 21.5421L85.0011 19.1663C81.0258 15.1804 74.7651 12.611 67.7242 12.611C60.6709 12.611 54.4025 15.1882 50.4272 19.1842L52.0679 21.563C55.4747 17.901 61.2216 15.4904 67.7242 15.4904ZM78.6395 24.7249C75.8042 22.5468 71.9906 21.3465 67.9013 21.3465H67.9021C63.8128 21.3465 59.9992 22.5468 57.1632 24.7249C56.5188 25.2159 55.9246 25.7701 55.3892 26.3793L53.727 23.9687C56.9328 20.6313 62.0874 18.4679 67.9021 18.4679C73.5789 18.4679 78.628 20.5314 81.8477 23.7347L80.1939 26.1337C79.7348 25.6393 79.2157 25.1682 78.6395 24.7249ZM67.724 27.4527C71.466 27.4527 74.8551 28.8064 76.944 30.8435L78.5955 28.4538C75.9866 26.0812 72.0845 24.5733 67.724 24.5733C63.352 24.5733 59.4407 26.0881 56.8318 28.4716L58.4817 30.8652C60.5691 28.8157 63.9698 27.4527 67.724 27.4527ZM47.4163 72.0216V91.2313C48.346 92.4858 48.9129 93.7015 48.9129 95.2195C48.9129 97.1102 48.071 98.8071 46.7485 99.9384L45.0994 98.2655C46.0443 97.5436 46.598 96.4178 46.5952 95.2242C46.5952 93.1243 44.9191 91.4211 42.8518 91.4211C40.7852 91.4211 39.1098 93.1243 39.1098 95.2249C39.1074 96.4096 39.6525 97.528 40.5849 98.2516L38.9381 99.9237C37.6263 98.7924 36.7621 97.1063 36.7621 95.2249C36.7621 93.7054 37.2266 92.3068 38.1516 91.2313V61.4013C38.3057 60.2522 39.1799 59.3231 40.3061 59.3231L94.1934 59.3301C95.3203 59.3301 96.2092 60.2522 96.364 61.4013V91.246C97.1343 92.3207 97.7535 93.7116 97.7535 95.2319C97.75 97.0407 96.96 98.7575 95.5914 99.9307L93.9361 98.2585C94.8675 97.5345 95.4112 96.416 95.4073 95.2319C95.4073 93.132 93.7297 91.4289 91.6623 91.4289C89.5957 91.4289 87.9189 93.1312 87.9189 95.2319C87.9189 96.4763 88.5058 97.5798 89.4139 98.274L87.7656 99.9477C86.3895 98.769 85.5978 97.0415 85.6004 95.2234C85.6004 93.7046 86.1989 92.4858 87.0993 91.2313V72.1797H84.4743V112.513L86.0186 113.548V116.865H67.953V113.548L69.9595 112.552V100.088H64.7102L64.714 112.513L66.565 113.548V116.865H48.3429V113.548L50.1954 112.515V72.0216H47.4163ZM53.7386 33.9229H81.1214C82.2483 33.9229 83.2396 34.8621 83.2396 36.0073V54.1454C83.2396 55.2837 82.2483 56.1871 81.1214 56.1871H53.7394C52.6164 56.1871 51.7406 55.2837 51.7406 54.1454V36.0073C51.7406 34.8621 52.6164 33.9229 53.7386 33.9229ZM60.4552 47.2348C58.5326 47.2348 56.9713 45.6448 56.9713 43.696C56.9713 41.7379 58.5326 40.1525 60.4552 40.1525C62.3801 40.1525 63.9406 41.7371 63.9406 43.696C63.9406 45.6448 62.3801 47.234 60.4552 47.234V47.2348ZM70.9585 43.696C70.9585 45.6448 72.5213 47.2348 74.4508 47.2348V47.234C76.3765 47.234 77.937 45.6448 77.937 43.696C77.937 41.7371 76.3765 40.1525 74.4508 40.1525C72.5221 40.1525 70.9585 41.7379 70.9585 43.696ZM62.2407 43.6965C62.2441 44.6922 61.445 45.5024 60.4552 45.5066C59.4739 45.5066 58.6736 44.693 58.6736 43.6965C58.6736 42.6892 59.4747 41.8818 60.4552 41.8818C60.9315 41.8832 61.3877 42.0755 61.7227 42.416C62.0578 42.7566 62.2442 43.2174 62.2407 43.6965ZM72.6677 43.6965C72.6639 44.6915 73.4619 45.5015 74.4509 45.5066C75.441 45.5011 76.2409 44.6926 76.2417 43.6965C76.2447 42.6982 75.4433 41.8861 74.4509 41.8818C73.4657 41.8818 72.6677 42.6892 72.6677 43.6965Z" fill="white"/>
</svg>
